<svg width="100%" height="100%" viewBox="0 0 120 44" fill="none" xmlns="http://www.w3.org/2000/svg">
<path d="M3 34.2506L3.24106 33.9539L14.6419 14.9357L14.6659 14.7343L9.64035 6.43507C9.21909 5.73988 8.03363 5.91557 7.89556 6.69382L3 34.2506Z" fill="#535353"/>
<path d="M3.14233 34.0245L3.32458 33.712L14.6048 14.8931L9.59295 6.56007C9.17622 5.87207 8.11828 6.04747 7.98055 6.81763L3.14233 34.0245Z" fill="#535353"/>
<path d="M3.14233 34.0245L3.32458 33.712L14.6048 14.8931L9.59295 6.56007C9.17622 5.87207 8.11828 6.04747 7.98055 6.81763L3.14233 34.0245Z" fill="#63666A"/>
<path d="M18.3298 21.0121L22.0718 17.643L18.3287 11.3609C17.9733 10.7662 16.9812 10.7645 16.6297 11.3609L14.6298 14.7151V15.0006L18.3298 21.0121Z" fill="#63666A"/>
<path d="M18.263 20.8717L21.9009 17.5962L18.263 11.5061C17.9176 10.9271 17.0784 10.8674 16.7366 11.4462L14.7262 14.8503L14.666 15.0244L18.263 20.8717Z" fill="#63666A"/>
<path d="M18.263 20.8717L21.9009 17.5962L18.263 11.5061C17.9176 10.9271 17.0784 10.8674 16.7366 11.4462L14.7262 14.8503L14.666 15.0244L18.263 20.8717Z" fill="#63666A"/>
<path d="M14.6403 14.6956L3 34.2509L3.10923 34.1543L3.5062 34.0125L18.0948 21.2348L18.2794 20.7925L14.6403 14.6956Z" fill="#535353"/>
<path d="M18.797 40.6948L31.9999 34.2213L28.2306 13.8066C28.1125 13.1679 27.2214 12.9154 26.7015 13.3734L3 34.2508L16.1272 40.6944C16.5352 40.8947 16.9947 40.9998 17.4621 40.9999C17.9294 41 18.3889 40.895 18.7971 40.6949" fill="#535353"/>
<path d="M31.8817 34.1673L28.14 13.9083C28.023 13.2744 27.2816 13.0122 26.7656 13.4667L3.14758 34.2112L16.1306 40.5901C16.9538 40.9942 17.9564 40.9944 18.7801 40.5907L31.8817 34.1673Z" fill="#B3B3B3"/>
<path d="M18.797 40.5042C17.968 40.9111 16.9567 40.9109 16.1271 40.5036L3.1056 34.1528L3 34.2509L16.1272 40.6945C16.9568 41.1018 17.9671 41.1018 18.7971 40.695L32 34.2214L31.9676 34.0465L18.797 40.5042Z" fill="#535353"/>
<path d="M43.0715 29.6535H41V14.174H50.4002V16.0761H43.0715V21.1572H49.6923V23.018H43.0715V29.6535ZM54.0419 16.4003C53.7564 16.6744 53.4117 16.8126 53.0067 16.8126C52.8139 16.8158 52.6225 16.7809 52.4444 16.7099C52.2663 16.639 52.1054 16.5336 51.9715 16.4003C51.8333 16.2714 51.7239 16.1168 51.6501 15.9459C51.5762 15.775 51.5395 15.5914 51.5422 15.4064C51.5388 15.2213 51.5752 15.0375 51.6491 14.8665C51.723 14.6955 51.8327 14.541 51.9715 14.4125C52.1058 14.2797 52.2668 14.1747 52.4448 14.1038C52.6228 14.0329 52.814 13.9977 53.0067 14.0002C53.1995 13.997 53.3909 14.032 53.569 14.1029C53.7471 14.1738 53.9081 14.2792 54.0419 14.4125C54.1802 14.5414 54.2896 14.696 54.3634 14.8669C54.4372 15.0378 54.4739 15.2214 54.4713 15.4064C54.4746 15.5915 54.4382 15.7753 54.3644 15.9463C54.2905 16.1173 54.1807 16.2718 54.0419 16.4003V16.4003ZM54.0419 29.6535H51.9704V19.0601H54.0419V29.6535ZM58.5134 29.6535H56.4407V19.0601H58.4217V20.7894H58.5111C58.72 20.2134 59.1528 19.7376 59.8062 19.3632C60.4596 18.9888 61.0828 18.8005 61.7095 18.8005C62.3361 18.8005 62.8433 18.8874 63.2646 19.0601L62.4754 20.9209C62.205 20.8095 61.8371 20.7694 61.3729 20.7694C60.622 20.7694 59.9571 21.0535 59.3803 21.6229C58.8035 22.1923 58.5134 22.9378 58.5134 23.8604V29.6546V29.6535ZM68.712 29.9877C67.0455 29.9877 65.6912 29.4551 64.6479 28.3877C63.6046 27.3202 63.0812 25.9741 63.0812 24.3451C63.0812 22.8029 63.5872 21.477 64.5899 20.3671C65.5926 19.2573 66.9109 18.7024 68.4741 18.7024C70.0989 18.7024 71.4195 19.215 72.4036 20.2379C73.3878 21.2608 73.8775 22.6302 73.8775 24.3462L73.8543 24.7139H65.1504C65.2107 25.7803 65.5821 26.6238 66.2645 27.2433C66.5811 27.5419 66.9559 27.7777 67.3675 27.9372C67.7792 28.0967 68.2195 28.1767 68.6633 28.1726C70.1488 28.1726 71.1549 27.5675 71.6806 26.3563L73.5375 27.0918C73.1893 27.913 72.5835 28.6016 71.7584 29.1565C70.9333 29.7114 69.919 29.9889 68.7178 29.9889L68.712 29.9877ZM71.683 23.0793C71.6365 22.4742 71.3487 21.8981 70.816 21.3499C70.2834 20.8017 69.4907 20.5287 68.4405 20.5287C67.6745 20.5287 67.0107 20.7594 66.4479 21.2196C65.885 21.6797 65.4986 22.3004 65.2873 23.0804H71.6702L71.683 23.0793ZM81.3884 29.9877C80.547 29.9877 79.7927 29.815 79.1254 29.4685C78.4581 29.122 77.9579 28.6907 77.6167 28.1715H77.5389V29.6423H75.5579V14.174H77.6295V19.0601L77.5389 20.5309H77.6295C77.9602 20.0117 78.4592 19.5793 79.1381 19.2339C79.817 18.8885 80.5609 18.7147 81.4011 18.7147C82.8286 18.7147 84.0703 19.2551 85.0939 20.3359C86.1175 21.4168 86.649 22.7572 86.649 24.3473C86.649 25.9374 86.1314 27.289 85.0939 28.3587C84.0564 29.4284 82.8274 29.9799 81.4011 29.9799L81.3884 29.9877ZM81.0402 28.1715C82.0011 28.1715 82.8274 27.8216 83.5168 27.1241C84.2061 26.4265 84.5519 25.4995 84.5519 24.3462C84.5519 23.1929 84.2061 22.267 83.5168 21.5683C82.8274 20.8697 82 20.5209 81.0402 20.5209C80.5723 20.5121 80.108 20.6001 79.6786 20.7789C79.2493 20.9577 78.8651 21.2231 78.5521 21.5572C77.8697 22.2592 77.5273 23.1784 77.5273 24.3462C77.5273 25.5139 77.8685 26.4433 78.5521 27.1352C79.2356 27.8272 80.0642 28.1737 81.0402 28.1737V28.1715ZM92.0802 29.9877C90.9197 29.9877 89.9298 29.6535 89.1418 29.015C88.3538 28.3765 87.9581 27.5085 87.9581 26.4522C87.9581 25.2989 88.4223 24.3952 89.3542 23.7389C90.2861 23.0826 91.4338 22.755 92.8009 22.755C94.0171 22.755 95.0152 22.9712 95.7951 23.4035V23.1004C95.7951 22.3205 95.5165 21.6987 94.9618 21.2307C94.4071 20.7627 93.7235 20.5287 92.9123 20.5287C92.3112 20.5287 91.7669 20.6658 91.2795 20.941C90.8157 21.1879 90.4601 21.5871 90.278 22.0653L88.3863 21.2875C88.6416 20.6524 89.1441 20.0663 89.895 19.527C90.6458 18.9877 91.6358 18.7158 92.8659 18.7158C94.2771 18.7158 95.4481 19.1125 96.3788 19.9047C97.3095 20.697 97.7749 21.8146 97.7749 23.2553V29.6546H95.8055V28.1837H95.715C94.8887 29.3938 93.6806 30 92.0895 30L92.0802 29.9877ZM92.4284 28.1715C93.2837 28.1715 94.0612 27.8651 94.7587 27.2522C95.4562 26.6394 95.8055 25.9151 95.8055 25.0794C95.2206 24.6181 94.3432 24.3885 93.1711 24.3885C92.165 24.3885 91.4071 24.598 90.8965 25.0159C90.3859 25.4337 90.1306 25.924 90.1306 26.4867C90.1306 27.006 90.3627 27.416 90.8292 27.7191C91.2957 28.0222 91.8272 28.1737 92.4284 28.1737V28.1715ZM103.801 29.9877C102.571 29.9877 101.554 29.698 100.749 29.1231C99.9658 28.5708 99.3546 27.8233 98.9818 26.9614L100.839 26.226C101.424 27.5631 102.423 28.2149 103.833 28.2149C104.478 28.2149 105.007 28.0779 105.42 27.8027C105.834 27.5274 106.04 27.1675 106.04 26.7218C106.04 26.031 105.538 25.563 104.531 25.3178L102.303 24.7986C101.598 24.6259 100.929 24.2972 100.299 23.8147C99.6689 23.3322 99.3567 22.7038 99.3567 21.8703C99.3567 20.9343 99.7884 20.1733 100.652 19.5894C101.515 19.0055 102.54 18.7136 103.727 18.7136C104.702 18.7136 105.584 18.9364 106.338 19.3509C107.093 19.7654 107.652 20.385 107.983 21.1783L106.182 21.8915C105.776 20.9555 104.935 20.4875 103.66 20.4875C103.045 20.4875 102.526 20.5989 102.105 20.8552C101.684 21.1115 101.475 21.4313 101.475 21.8491C101.475 22.4542 101.962 22.8653 102.937 23.0815L105.121 23.5785C106.156 23.8091 106.922 24.2058 107.419 24.7674C107.916 25.329 108.162 25.9641 108.162 26.6694C108.162 27.621 107.755 28.4133 106.945 29.0473C106.135 29.6813 105.091 29.9989 103.815 29.9989L103.801 29.9877ZM114.835 29.9877C113.168 29.9877 111.813 29.4551 110.77 28.3877C109.728 27.3202 109.204 25.9741 109.204 24.3451C109.204 22.8029 109.71 21.477 110.712 20.3671C111.715 19.2573 113.033 18.7024 114.597 18.7024C116.221 18.7024 117.542 19.215 118.526 20.2379C119.51 21.2608 120 22.6302 120 24.3462V24.7139H111.296C111.354 25.7803 111.728 26.6238 112.41 27.2433C112.727 27.5418 113.101 27.7775 113.513 27.937C113.924 28.0964 114.364 28.1765 114.808 28.1726C116.293 28.1726 117.299 27.5675 117.825 26.3563L119.682 27.0918C119.334 27.913 118.728 28.6016 117.903 29.1565C117.078 29.7114 116.064 29.9889 114.862 29.9889L114.835 29.9877ZM117.805 23.0793C117.759 22.4742 117.471 21.8981 116.939 21.3499C116.406 20.8017 115.613 20.5287 114.563 20.5287C113.833 20.5164 113.123 20.7627 112.57 21.2207C112.008 21.682 111.621 22.3015 111.41 23.0815H117.793L117.805 23.0793Z" fill="#FFF"/>
</svg>
